# xmcd CD database file
#
# Track frame offsets:
#	150
#	14554
#	41643
#	73519
#	112403
#	136354
#	155422
#	176228
#	190426
#	210513
#	237187
#	255916
#	278303
#	307048
#
# Disc length: 4386 seconds
#
# Revision: 0
# Processed by: cddbd v1.5.2PL0 Copyright (c) Steve Scherf et al.
# Submitted via: CDex 1.70beta2
#
DISCID=c911200e
DTITLE=Manolin - El Medico de la Salsa
DYEAR=2004
DGENRE=Salsa
TTITLE0=Y Ahora Baila 
TTITLE1=Embriagame
TTITLE2=El Amor Cosa Tan Rara 
TTITLE3=Ya Se Que Sabes De Mi 
TTITLE4=Lluvia 
TTITLE5=Tu Me Haces Falta 
TTITLE6=La Vida No Es Tan Tan 
TTITLE7=Tu Eres 
TTITLE8=Todo, Todo, Todo 
TTITLE9=Date Tu Lugar 
TTITLE10=La Vida Es Un Carnaval 
TTITLE11=Chan Chan 
TTITLE12=Salsa misc 1
TTITLE13=Salsa misc 2
EXTD=YEAR: 2004
EXTT0=
EXTT1=
EXTT2=
EXTT3=
EXTT4=
EXTT5=
EXTT6=
EXTT7=
EXTT8=
EXTT9=
EXTT10=
EXTT11=
EXTT12=
EXTT13=
PLAYORDER=
